<?xml version="1.0" standalone="no"?>
<!DOCTYPE svg PUBLIC "-//W3C//DTD SVG 20010904//EN"
 "http://www.w3.org/TR/2001/REC-SVG-20010904/DTD/svg10.dtd">
<svg version="1.0" xmlns="http://www.w3.org/2000/svg"
 width="900.000000pt" height="900.000000pt" viewBox="0 0 900.000000 900.000000"
 preserveAspectRatio="xMidYMid meet">
<metadata>
Created by potrace 1.11, written by Peter Selinger 2001-2013
</metadata>
<g transform="translate(0.000000,900.000000) scale(0.100000,-0.100000)"
fill="#000000" stroke="none">
<path d="M4115 8949 c-1058 -96 -2034 -550 -2774 -1290 -710 -711 -1147 -1614
-1276 -2639 -22 -171 -31 -665 -16 -856 98 -1242 694 -2369 1660 -3142 679
-543 1497 -874 2370 -956 216 -21 616 -21 832 0 1210 115 2311 707 3065 1649
546 683 875 1500 958 2374 21 216 21 616 0 832 -123 1298 -790 2459 -1850
3215 -610 436 -1298 701 -2074 800 -148 18 -739 27 -895 13z m-1132 -1611 c4
-10 8 -10 15 1 7 9 19 12 38 7 46 -11 105 -13 110 -4 3 4 13 8 22 7 14 0 13
-2 -3 -8 -15 -7 -6 -10 38 -16 32 -4 60 -5 63 -2 3 3 24 -1 46 -9 22 -7 53
-15 69 -16 15 -1 26 -4 23 -7 -3 -3 15 -13 38 -22 26 -11 35 -18 23 -19 -16 0
-15 -3 9 -15 15 -8 35 -15 42 -15 8 0 14 -5 14 -11 0 -6 7 -9 15 -5 8 3 15 1
15 -4 0 -5 7 -7 15 -4 9 4 15 0 15 -7 0 -8 22 -30 49 -49 27 -19 47 -38 45
-41 -2 -3 9 -12 24 -20 31 -16 58 -40 54 -48 -2 -3 5 -8 15 -12 12 -5 13 -8 3
-8 -9 -1 -6 -7 10 -18 14 -9 32 -25 40 -36 8 -11 25 -30 38 -42 16 -16 19 -24
10 -28 -10 -3 -8 -10 6 -26 14 -16 16 -21 5 -21 -10 -1 -10 -4 3 -14 10 -7 15
-16 11 -20 -4 -4 3 -9 15 -13 28 -7 49 -48 46 -88 -2 -35 22 -95 38 -95 6 0 8
-3 5 -7 -4 -3 1 -12 11 -20 12 -10 13 -16 5 -19 -8 -4 -9 -13 -3 -30 7 -16 6
-24 -1 -24 -7 0 -8 -7 -4 -17 4 -10 9 -30 10 -45 2 -14 6 -32 10 -38 4 -6 8
-40 10 -76 2 -36 6 -68 8 -71 10 -9 -35 -51 -62 -58 -52 -12 -191 -79 -191
-92 0 -8 -12 -13 -30 -13 -16 0 -30 -4 -30 -9 0 -20 18 -20 56 -2 59 29 288
98 389 118 72 14 138 18 325 17 219 0 243 -2 354 -27 65 -15 160 -41 210 -57
127 -43 333 -148 446 -228 110 -77 313 -275 388 -377 132 -179 238 -400 286
-592 53 -211 64 -316 55 -533 -18 -434 -192 -832 -499 -1141 -247 -249 -533
-404 -886 -480 -138 -30 -164 -32 -344 -33 -166 -1 -212 3 -310 22 -159 32
-243 56 -356 102 -507 207 -883 632 -1028 1164 -49 176 -60 281 -53 514 6 223
20 303 85 498 57 172 161 369 259 493 47 59 173 202 193 219 13 10 10 12 -14
10 -57 -5 -282 -277 -378 -455 -35 -65 -42 -72 -53 -57 -6 9 -17 14 -23 10 -7
-4 -12 -2 -12 4 0 6 -13 23 -30 37 -16 13 -30 31 -30 39 0 8 -5 14 -11 14 -5
0 -7 5 -4 10 3 6 -1 10 -10 10 -9 0 -13 5 -10 10 4 6 -8 24 -25 41 -17 18 -29
37 -27 44 3 6 -4 17 -15 24 -11 7 -17 19 -14 27 3 8 2 14 -2 14 -4 0 -17 22
-30 50 l-23 49 -56 3 c-40 2 -58 7 -60 18 -4 13 -3 13 6 0 7 -9 11 -11 11 -3
0 7 -8 17 -17 22 -10 6 -14 11 -9 11 5 0 3 6 -3 14 -8 10 -9 16 -2 21 7 4 7
12 -2 25 -8 14 -23 20 -50 20 -34 0 -37 2 -33 25 3 14 1 25 -4 25 -5 0 -7 16
-6 35 4 33 1 36 -25 42 -16 3 -26 9 -24 14 3 4 1 10 -5 14 -6 4 -8 11 -5 16 4
5 -5 9 -19 9 -14 0 -25 3 -25 8 6 36 -2 42 -52 42 l-51 0 7 33 c5 25 4 29 -5
17 -10 -13 -11 -12 -6 3 3 10 6 23 6 28 0 6 4 8 8 5 4 -2 8 4 8 14 0 10 -4 16
-8 14 -4 -3 -4 6 2 20 9 26 9 26 -41 26 -42 0 -50 3 -45 15 3 9 -1 18 -10 22
-18 7 -12 62 8 74 13 8 12 8 -37 24 -8 2 -12 11 -9 20 5 12 -3 15 -40 15 -44
0 -46 1 -35 21 8 15 8 19 0 15 -16 -10 -13 10 3 24 21 16 9 40 -20 40 -30 0
-31 17 -2 47 l21 23 -21 0 c-11 0 -23 4 -26 9 -8 12 4 42 13 36 11 -6 7 39 -4
47 -5 4 5 21 24 38 23 23 30 35 22 43 -7 7 -4 16 11 29 20 17 20 18 2 18 -15
0 -16 2 -5 9 8 5 16 18 17 28 2 10 16 28 31 41 15 12 27 27 25 34 -2 6 6 17
18 25 11 8 18 18 16 22 -3 4 6 14 19 21 13 7 22 16 20 20 -2 3 16 22 40 41 24
18 51 46 60 61 9 16 25 33 37 39 11 6 39 25 62 43 23 17 60 37 83 45 23 8 40
18 37 22 -3 5 1 9 9 9 8 0 26 9 40 20 14 11 39 23 56 26 17 4 29 10 26 14 -5
8 62 30 91 30 11 0 32 7 47 15 15 8 34 12 43 8 9 -3 14 0 12 8 -2 8 3 13 11
11 8 -2 21 0 30 4 9 4 34 9 56 11 22 3 42 6 44 9 10 9 60 3 64 -8z"/>
<path d="M4365 5596 c-314 -54 -504 -271 -505 -576 0 -134 40 -248 129 -363
29 -38 51 -69 49 -71 -24 -14 -103 -93 -141 -139 -95 -117 -137 -243 -137
-407 0 -310 181 -550 467 -617 61 -14 119 -18 263 -18 214 0 277 13 402 77
142 73 262 230 304 398 20 78 22 234 4 310 -31 136 -129 291 -229 364 l-50 37
54 67 c98 122 135 219 135 362 0 163 -57 299 -174 416 -138 138 -350 197 -571
160z m213 -392 c84 -35 133 -112 134 -209 1 -209 -226 -321 -381 -188 -129
110 -106 318 44 396 40 21 154 22 203 1z m55 -857 c70 -32 117 -75 151 -137
80 -147 17 -332 -137 -401 -44 -21 -68 -24 -162 -24 -100 0 -115 2 -167 28
-60 30 -115 85 -144 145 -26 55 -30 149 -9 213 20 58 86 133 146 165 94 49
229 54 322 11z"/>
</g>
</svg>
